<svg xmlns="http://www.w3.org/2000/svg" width="29.6" height="21.527" viewBox="0 0 29.6 21.527">
  <path id="ic_local_shipping_24px" d="M26.564,9.382H22.527V4H3.691A2.7,2.7,0,0,0,1,6.691v14.8H3.691a4.036,4.036,0,0,0,8.073,0h8.073a4.036,4.036,0,1,0,8.073,0H30.6V14.764ZM7.727,23.509a2.018,2.018,0,1,1,2.018-2.018A2.015,2.015,0,0,1,7.727,23.509ZM25.891,11.4l2.637,3.364h-6V11.4ZM23.873,23.509a2.018,2.018,0,1,1,2.018-2.018A2.015,2.015,0,0,1,23.873,23.509Z" transform="translate(-1 -4)" fill="#241b15"/>
</svg>
