<svg width="24" height="24" viewBox="0 0 24 24" fill="none" xmlns="http://www.w3.org/2000/svg">
<path d="M4 6.41396L0.757004 3.17196L2.172 1.75696L5.414 4.99996H20.656C20.8119 4.99995 20.9656 5.03637 21.1049 5.10633C21.2442 5.17628 21.3652 5.27782 21.4582 5.40285C21.5513 5.52789 21.6139 5.67294 21.6409 5.82644C21.6679 5.97995 21.6587 6.13765 21.614 6.28696L19.214 14.287C19.1523 14.493 19.0257 14.6737 18.8531 14.8022C18.6805 14.9306 18.4711 15 18.256 15H6V17H17V19H5C4.73479 19 4.48043 18.8946 4.2929 18.7071C4.10536 18.5195 4 18.2652 4 18V6.41396ZM6 6.99996V13H17.512L19.312 6.99996H6ZM5.5 23C5.10218 23 4.72065 22.8419 4.43934 22.5606C4.15804 22.2793 4 21.8978 4 21.5C4 21.1021 4.15804 20.7206 4.43934 20.4393C4.72065 20.158 5.10218 20 5.5 20C5.89783 20 6.27936 20.158 6.56066 20.4393C6.84197 20.7206 7 21.1021 7 21.5C7 21.8978 6.84197 22.2793 6.56066 22.5606C6.27936 22.8419 5.89783 23 5.5 23ZM17.5 23C17.1022 23 16.7206 22.8419 16.4393 22.5606C16.158 22.2793 16 21.8978 16 21.5C16 21.1021 16.158 20.7206 16.4393 20.4393C16.7206 20.158 17.1022 20 17.5 20C17.8978 20 18.2794 20.158 18.5607 20.4393C18.842 20.7206 19 21.1021 19 21.5C19 21.8978 18.842 22.2793 18.5607 22.5606C18.2794 22.8419 17.8978 23 17.5 23Z" fill="#FFF9EE"/>
</svg>
