<svg id="Lager_1" data-name="Lager 1" xmlns="http://www.w3.org/2000/svg" viewBox="0 0 212.84 183"><defs><style>.cls-1{font-size:46.51px;font-family:SourceSansPro-Regular, Source Sans Pro;}.cls-1,.cls-5{fill:#ffdd06;}.cls-2{letter-spacing:-0.02em;}.cls-3{letter-spacing:-0.01em;}.cls-4{letter-spacing:-0.02em;}</style></defs><text class="cls-1" transform="translate(26.26 87.72)">Uppsala <tspan class="cls-2" x="-14.14" y="55.81">f</tspan><tspan x="-1.49" y="55.81">ä</tspan><tspan class="cls-3" x="22" y="55.81">r</tspan><tspan x="37.72" y="55.81">dtjän</tspan><tspan class="cls-4" x="139.7" y="55.81">s</tspan><tspan x="158.26" y="55.81">t</tspan></text><path class="cls-5" d="M-5.33,72.26" transform="translate(6.42 -22.85)"/><path class="cls-5" d="M153.47,48.23C141.18,19.89,84.69,22.84,81.92,23c-7.45.47-14.41,2-20.48,6.79a30.66,30.66,0,0,0-7.17,8.06l-9.6,20.86c23.85.6,43.17,1.69,56.32,2.56,30.63,2,50.07,4.4,53.76-3.71C156.17,54.45,154.69,51,153.47,48.23ZM72.19,40.34l-.84,0-.62.15a4.49,4.49,0,0,0-1.52.59,19.57,19.57,0,0,0-2.32,1.4c.09,0-.88.78-1.08,1-5.29,5.31-13.51-2.91-8.23-8.23,3.69-3.7,9.27-6.74,14.61-6.56a5.81,5.81,0,0,1,0,11.62Zm38,1.33a118,118,0,0,0-17.79-2c-7.44-.44-7.47-12.07,0-11.62a138.05,138.05,0,0,1,20.88,2.38C120.61,32,117.49,43.25,110.2,41.67Zm26.92,7.19-.07-.06-.35-.32-.12-.08c-.68-.5-1.43-.89-2.15-1.32-2.11-1.25-4-2.88-6.17-3.95-2.84-1.37-3.57-5.4-2.08-8,1.67-2.86,5.13-3.45,7.95-2.08a82.09,82.09,0,0,1,7.57,4.77c3,1.85,5.43,4.12,6.49,7.53C150.39,52.45,139.6,55.5,137.12,48.86Z" transform="translate(6.42 -22.85)"/><path class="cls-5" d="M-11.06,52.33" transform="translate(6.42 -22.85)"/><circle class="cls-5" cx="72.72" cy="38.95" r="9.47"/><circle class="cls-5" cx="131.47" cy="39.46" r="8.96"/></svg>