<svg id="Lager_3" data-name="Lager 3" xmlns="http://www.w3.org/2000/svg" viewBox="0 0 258.23 36.08"><defs><style>.cls-1{fill:#e94e1b;stroke:#1d1d1b;stroke-miterlimit:10;stroke-width:0.5px;}</style></defs><path class="cls-1" d="M21.09,3.36h1.29V11c1.34-1.13,6.11-5.07,9.1-7.63h1.71L25.7,9.61,42.33,36.89h-1.6l-16-26.55-2.39,1.84V36.65H21.09Z" transform="translate(-20.84 -2.26)"/><path class="cls-1" d="M37.33,11.18V18H36V3.36h6c3.3,0,5,1.56,5,3.86a3.47,3.47,0,0,1-3.13,3.44c1.72.35,2.87,1.34,2.87,3.83v.56A8.67,8.67,0,0,0,47,18H45.68A8.64,8.64,0,0,1,45.44,15v-.38c0-2.41-.81-3.41-4-3.41Zm0-1h4c2.93,0,4.29-1,4.29-2.89s-1.33-2.83-3.93-2.83H37.33Z" transform="translate(-20.84 -2.26)"/><path class="cls-1" d="M52.41,3.36V18H51.12V3.36Z" transform="translate(-20.84 -2.26)"/><path class="cls-1" d="M57.21,14.09c.5,1.95,2,3.1,4.72,3.1,3.06,0,4.23-1.34,4.23-2.93s-.84-2.68-4.51-3.48S56.59,9,56.59,6.88c0-1.92,1.6-3.72,5.18-3.72s5.22,2,5.44,3.75H65.87C65.49,5.33,64.32,4.2,61.7,4.2c-2.41,0-3.73,1-3.73,2.62s1.1,2.24,4.18,2.91c4.7,1,5.39,2.69,5.39,4.44,0,2.16-1.79,4-5.65,4-4.18,0-5.71-2.14-6-4.11Z" transform="translate(-20.84 -2.26)"/><path class="cls-1" d="M74.51,4.41h-5.6V3.36H81.46V4.41H75.83V18H74.51Z" transform="translate(-20.84 -2.26)"/><path class="cls-1" d="M85.23,3.36V18H83.94V3.36Z" transform="translate(-20.84 -2.26)"/><path class="cls-1" d="M90.15,18V3.36h1.91c2.6,3.52,8.71,11.72,9.76,13.31h0c-.14-2.12-.12-4.28-.12-6.66V3.36H103V18h-1.77C98.79,14.64,92.58,6.11,91.39,4.5h0c.12,1.92.09,4.06.09,6.72V18Z" transform="translate(-20.84 -2.26)"/><path class="cls-1" d="M106.64,23.67l-2.15,14.18h-1.32l6.25-35.14H111l6.35,35.14h-1.42l-2.17-14.18Zm6.65-1.2C112.23,18,110.53,5.11,110.19,4h0c-.41,1.27-2.69,14.22-3.07,18.49Z" transform="translate(-20.84 -2.26)"/><path class="cls-1" d="M120.28,21.05h5.86c3.22,0,5,1.7,5,4.13a3.63,3.63,0,0,1-2.6,3.67A4.24,4.24,0,0,1,131.68,33c0,3.36-2.51,4.85-5.44,4.85h-6Zm5.43,7.22c2.9,0,4-1.08,4-3,0-1.66-1.16-3-3.51-3h-4.65v6Zm-4.15,8.38h4.72c2.21,0,4.06-1.11,4.06-3.58,0-2.13-1.37-3.6-4.75-3.6h-4Z" transform="translate(-20.84 -2.26)"/><path class="cls-1" d="M136.84,30v7.85h-1.32V21.05h6c3.31,0,5.06,1.77,5.06,4.41a3.8,3.8,0,0,1-3.14,3.94c1.73.41,2.88,1.54,2.88,4.39v.65a10.94,10.94,0,0,0,.22,3.41h-1.32a11,11,0,0,1-.24-3.51v-.43c0-2.76-.82-3.91-4-3.91Zm0-1.2h4.06c2.95,0,4.32-1.1,4.32-3.31s-1.34-3.24-4-3.24h-4.42Z" transform="translate(-20.84 -2.26)"/><path class="cls-1" d="M152.64,32l-2.14,5.81h-1.32l6.17-16.8h1.53l6.44,16.8H161.9L159.72,32Zm6.64-1.2c-1.87-5-2.83-7.39-3.16-8.52h0c-.41,1.27-1.49,4.25-3,8.52Z" transform="translate(-20.84 -2.26)"/><path class="cls-1" d="M166.29,21.05h1.3v7.32h10.08V21.05H179v16.8h-1.29V29.57H167.59v8.28h-1.3Z" transform="translate(-20.84 -2.26)"/><path class="cls-1" d="M185.47,32l-2.14,5.81H182l6.17-16.8h1.54l6.43,16.8h-1.42L192.55,32Zm6.65-1.2c-1.88-5-2.84-7.39-3.17-8.52h0c-.4,1.27-1.48,4.25-3,8.52Z" transform="translate(-20.84 -2.26)"/><path class="cls-1" d="M213.67,30.12c0-3.29,0-6.43.09-8.11h-.07c-.67,2.25-4.08,10.53-6.21,15.84H206.2c-1.61-4.11-5.13-13.32-5.9-15.87h-.05c.12,1.92.17,5.84.17,8.72v7.15h-1.3V21.05h1.95c2.3,5.76,5.21,13.29,5.83,15.19h0c.38-1.22,3.74-9.6,6.09-15.19H215v16.8h-1.29Z" transform="translate(-20.84 -2.26)"/><path class="cls-1" d="M219.72,33.34c.5,2.23,2,3.55,4.75,3.55,3.07,0,4.25-1.54,4.25-3.36s-.84-3.07-4.54-4-5.09-2-5.09-4.46c0-2.21,1.61-4.27,5.21-4.27s5.26,2.25,5.47,4.29h-1.34c-.39-1.8-1.56-3.09-4.2-3.09-2.43,0-3.75,1.13-3.75,3s1.11,2.57,4.2,3.33c4.73,1.18,5.43,3.08,5.43,5.09,0,2.47-1.8,4.61-5.69,4.61-4.2,0-5.74-2.45-6-4.7Z" transform="translate(-20.84 -2.26)"/><path class="cls-1" d="M233.92,33.34c.51,2.23,2,3.55,4.76,3.55,3.07,0,4.24-1.54,4.24-3.36s-.84-3.07-4.53-4-5.09-2-5.09-4.46c0-2.21,1.61-4.27,5.21-4.27s5.25,2.25,5.47,4.29h-1.34c-.39-1.8-1.56-3.09-4.21-3.09-2.42,0-3.74,1.13-3.74,3s1.11,2.57,4.2,3.33c4.73,1.18,5.43,3.08,5.43,5.09,0,2.47-1.8,4.61-5.69,4.61-4.2,0-5.74-2.45-6-4.7Z" transform="translate(-20.84 -2.26)"/><path class="cls-1" d="M262.17,29.33c0,4.58-2.45,8.76-7.63,8.76-4.73,0-7.49-3.82-7.49-8.64s2.66-8.64,7.66-8.64C259.31,20.81,262.17,24.43,262.17,29.33Zm-13.73.05c0,3.86,2.14,7.51,6.17,7.51,4.34,0,6.17-3.55,6.17-7.54S258.71,22,254.66,22C250.34,22,248.44,25.58,248.44,29.38Z" transform="translate(-20.84 -2.26)"/><path class="cls-1" d="M265.87,37.85V2.51h1.92c2.61,4,8.76,32,9.81,33.78h0c-.15-2.43-.12-4.9-.12-7.63V2.51h1.32V37.85h-1.78c-2.5-3.89-8.74-32.2-9.94-34.05h0c.12,2.21.09,23.2.09,26.25v7.8Z" transform="translate(-20.84 -2.26)"/></svg>